<?xml version="1.0" encoding="UTF-8"?>
<svg width="1200pt" height="1200pt" version="1.1" viewBox="0 0 1200 1200" xmlns="http://www.w3.org/2000/svg">
 <path d="m588.2 10.383c-10.984-0.14453-21.934 2.5859-30.859 8.1016-44.711 27.633-72.238 82.566-83.711 133.86-7.3477 32.852 26.059 69.727 11.957 100.3-33.652 72.961-152.92 68.793-200.59 133.47-104.89 142.3-85.051 328.66-150.45 508.81 20.707 39.16 86.672 59.84 126.53 40.504 50.934-161.32 112.38-310.44 112.25-300.89 0 0-1.8477 431.44-7.3281 537.36 225.49 7.6523 270.31 37.004 494.54-19.289-14.469-155.95-10.035-185.86-20.832-270.8l-7.3281-3.4727-60.18-23.145-5.7852-2.3164 2.3164-5.7852s11.684-29.422 23.531-66.734c11.848-37.312 23.855-82.539 23.918-112.25 0.042968-22.281-8.8516-56.824-17.746-85.254-8.8945-28.426-17.746-50.922-17.746-50.922l11.574-4.6289s9.0898 22.797 18.129 51.691 18.184 63.711 18.129 89.109c-0.066406 32.832-12.309 77.945-24.305 115.73-10.98 34.582-20.207 57.613-21.988 62.105l61.723 26.617 13.5 8.4883c33.402 11.242 37.117 10.383 53.234 16.203 45.328-249.17 76.984-240.37 33.176-396.56-25.637-61.461-44.137-88.68-88.34-138.49-34.57-38.957-102.96-26.152-120.36-73.293-1.9414 2.8359-3.2188 4.8906-5.4023 8.1016-25.395 37.371-68.965 101.95-137.71 196.35-16.312 223.39 0 668.52 0 668.52l-12.344 0.38672s-16.605-446.84 0-671.61v-1.543l1.1562-1.543c69.602-95.496 113.25-159.8 138.87-197.51 5.4609-8.0391 9.5859-14.375 13.5-20.059 4.9844-25.961 37.48-49.328 43.59-77.152 1.3672-6.2188 2.5234-13.441 0-19.289-30.762-71.344-95.852-134.47-169.34-159.7-5.9531-2.0469-12.695-3.3867-19.285-3.4727zm54.004 106.08c3.3594-0.27344 6.6875-0.23828 10.414 0 21.148 1.3633 88.883 39.234 100.3 57.094 2.6094 4.0781 3.1328 9.8867 2.3164 14.66-18.977 36.406-59.105 102.39-102.61 155.07-16.727 4.0781-12.262-29.504-28.547-23.918-30.949 10.617 1.3672 98.621-30.859 92.969-30.582-5.3672-1.7344-70.543-16.973-97.598-15.746-27.953-55.676-12.336-64.422-43.203-5.4375-19.188 14.234-38.57 28.547-52.465 40.227-39.047 51.453-98.504 101.84-102.61zm-77.539 219.5v11.957c-14.961 0.35938-22.176 8.8555-27.773 21.602-5.5977 12.746-7.9219 29.395-9.2578 42.82v0.77344c-2.3828 10.469-9.4258 20.633-19.289 25.848-0.20703 7.043-6.0195 12.73-13.117 12.73-7.2266 0-13.117-5.8906-13.117-13.117 0-7.2266 5.8906-13.117 13.117-13.117 2.8047 0 5.1992 1.1992 7.3281 2.6992 6.0625-3.3242 10.438-9.8828 12.344-16.973 0.027344-0.29688 0.74219-0.46875 0.76953-0.76953 1.3633-13.539 3.1055-31.023 9.6445-45.906 6.6836-15.215 19.453-28.07 39.348-28.547zm-151.6 143.89h98.754v12.344h-98.754zm213.32 37.805c5.2734 0 9.6445 3.9844 9.6445 9.2578 0 5.2734-4.3711 9.6445-9.6445 9.6445-5.2734 0-9.6445-4.3711-9.6445-9.6445 0-5.2734 4.3711-9.2578 9.6445-9.2578zm0 108.4c5.2734 0 9.6445 4.3711 9.6445 9.6445 0 5.2734-4.3711 9.6445-9.6445 9.6445-5.2734 0-9.6445-4.3711-9.6445-9.6445 0-5.2734 4.3711-9.6445 9.6445-9.6445zm0 108.79c5.2734 0 9.6445 4.3711 9.6445 9.6445 0 5.2734-4.3711 9.2578-9.6445 9.2578-5.2734 0-9.6445-3.9844-9.6445-9.2578 0-5.2734 4.3711-9.6445 9.6445-9.6445zm198.28 81.008c7.9102 0 14.273 6.7461 14.273 14.66 0 7.9102-6.3594 14.273-14.273 14.273-7.9102 0-14.273-6.3594-14.273-14.273 0-7.9102 6.3594-14.66 14.273-14.66zm-198.28 27.773c5.2734 0 9.6445 3.9844 9.6445 9.2578s-4.3711 9.6445-9.6445 9.6445c-5.2734 0-9.6445-4.3711-9.6445-9.6445s4.3711-9.2578 9.6445-9.2578zm-391.54 48.605c7.9102 0 14.273 6.7461 14.273 14.66 0 7.9102-6.3594 14.273-14.273 14.273-7.9102 0-14.273-6.3594-14.273-14.273 0-7.9102 6.3594-14.66 14.273-14.66zm165.88 7.3281h135.79v12.344h-135.79zm222.2 0h135.79v12.344h-135.79zm3.4727 52.465c5.2734 0 9.6445 4.3711 9.6445 9.6445 0 5.2734-4.3711 9.6445-9.6445 9.6445-5.2734 0-9.6445-4.3711-9.6445-9.6445 0-5.2734 4.3711-9.6445 9.6445-9.6445zm0 108.79c5.2734 0 9.6445 3.9844 9.6445 9.2578 0 5.2734-4.3711 9.6445-9.6445 9.6445-1.4375 0-2.6367-0.20312-3.8594-0.76953-1.0469-0.44922-1.8789-1.1602-2.6992-1.9297-0.98828-0.92188-1.7773-1.832-2.3164-3.0859-0.48437-1.1445-0.76953-2.5391-0.76953-3.8555 0-1.4258 0.21484-2.6445 0.76953-3.8555 0.53516-1.2148 1.3281-1.832 2.3164-2.6992 1.7305-1.5234 4.0391-2.6992 6.5586-2.6992z"/>
</svg>
